<?xml version="1.0" encoding="utf-8"?>
<!-- Generator: Adobe Illustrator 19.1.0, SVG Export Plug-In . SVG Version: 6.00 Build 0)  -->
<svg version="1.1" id="Layer_1" xmlns:sketch="http://www.bohemiancoding.com/sketch/ns"
	 xmlns="http://www.w3.org/2000/svg" xmlns:xlink="http://www.w3.org/1999/xlink" x="0px" y="0px" viewBox="-4 5 28 28"
	 style="enable-background:new -4 5 28 28;" xml:space="preserve">
<style type="text/css">
	.st0{fill:#9CC947;}
	.st1{clip-path:url(#SVGID_3_);fill:#00C26E;}
</style>
<title>android</title>
<desc>Created with Sketch.</desc>
<g>
	<g>
		<path id="SVGID_1_" class="st0" d="M21,16.1c0-0.9-0.6-1.6-1.5-1.6S18,15.2,18,16.1v6.7c0,0.9,0.7,1.6,1.5,1.6
			c0.9,0,1.5-0.7,1.5-1.6V16.1z M2.7,14.8v10.5c0,0.9,0.9,1.9,1.8,1.9h1v3.3c0,0.9,0.8,1.6,1.7,1.6s1.6-0.7,1.6-1.6v-3.3H11v3.3
			c0,0.9,0.7,1.6,1.6,1.6c0.9,0,1.7-0.7,1.7-1.6v-3.3h1c0.9,0,1.8-1,1.8-1.9V14.8H2.7z M13.3,11.6c-0.3,0-0.6-0.3-0.6-0.6
			s0.3-0.6,0.6-0.6s0.6,0.3,0.6,0.6C13.9,11.4,13.6,11.6,13.3,11.6z M6.7,11.6c-0.3,0-0.6-0.3-0.6-0.6s0.3-0.6,0.6-0.6
			s0.6,0.3,0.6,0.6C7.3,11.4,7,11.6,6.7,11.6z M13.5,8.3l1.1-2c0.1-0.1,0-0.2-0.1-0.3s-0.2,0-0.3,0.1l-1.1,2.1c-1-0.4-2-0.6-3.1-0.6
			S7.8,7.8,6.9,8.2L5.8,6.1C5.7,6,5.6,6,5.5,6C5.4,6.1,5.4,6.2,5.4,6.3l1.1,2c-2.2,1.1-3.7,3.5-3.7,5.9h14.5
			C17.2,11.8,15.7,9.4,13.5,8.3z M0.5,14.5c-0.9,0-1.5,0.7-1.5,1.6v6.7c0,0.9,0.6,1.6,1.5,1.6S2,23.7,2,22.8v-6.7
			C2,15.2,1.3,14.5,0.5,14.5z"/>
	</g>
	<g>
		<defs>
			<path id="SVGID_2_" d="M21,16.1c0-0.9-0.6-1.6-1.5-1.6S18,15.2,18,16.1v6.7c0,0.9,0.7,1.6,1.5,1.6c0.9,0,1.5-0.7,1.5-1.6V16.1z
				 M2.7,14.8v10.5c0,0.9,0.9,1.9,1.8,1.9h1v3.3c0,0.9,0.8,1.6,1.7,1.6s1.6-0.7,1.6-1.6v-3.3H11v3.3c0,0.9,0.7,1.6,1.6,1.6
				c0.9,0,1.7-0.7,1.7-1.6v-3.3h1c0.9,0,1.8-1,1.8-1.9V14.8H2.7z M13.3,11.6c-0.3,0-0.6-0.3-0.6-0.6s0.3-0.6,0.6-0.6
				s0.6,0.3,0.6,0.6C13.9,11.4,13.6,11.6,13.3,11.6z M6.7,11.6c-0.3,0-0.6-0.3-0.6-0.6s0.3-0.6,0.6-0.6s0.6,0.3,0.6,0.6
				C7.3,11.4,7,11.6,6.7,11.6z M13.5,8.3l1.1-2c0.1-0.1,0-0.2-0.1-0.3s-0.2,0-0.3,0.1l-1.1,2.1c-1-0.4-2-0.6-3.1-0.6
				S7.8,7.8,6.9,8.2L5.8,6.1C5.7,6,5.6,6,5.5,6C5.4,6.1,5.4,6.2,5.4,6.3l1.1,2c-2.2,1.1-3.7,3.5-3.7,5.9h14.5
				C17.2,11.8,15.7,9.4,13.5,8.3z M0.5,14.5c-0.9,0-1.5,0.7-1.5,1.6v6.7c0,0.9,0.6,1.6,1.5,1.6S2,23.7,2,22.8v-6.7
				C2,15.2,1.3,14.5,0.5,14.5z"/>
		</defs>
		<use xlink:href="#SVGID_2_"  style="overflow:visible;fill:#00C26E;"/>
		<clipPath id="SVGID_3_">
			<use xlink:href="#SVGID_2_"  style="overflow:visible;"/>
		</clipPath>
		<rect x="-2.2" y="4.8" class="st1" width="24.4" height="28.6"/>
	</g>
</g>
</svg>
