<?xml version="1.0" encoding="utf-8"?>
<!-- Generator: Adobe Illustrator 19.1.0, SVG Export Plug-In . SVG Version: 6.00 Build 0)  -->
<svg version="1.1" id="Layer_1" xmlns:sketch="http://www.bohemiancoding.com/sketch/ns"
	 xmlns="http://www.w3.org/2000/svg" xmlns:xlink="http://www.w3.org/1999/xlink" x="0px" y="0px" viewBox="-585 43 28 28"
	 style="enable-background:new -585 43 28 28;" xml:space="preserve">
<style type="text/css">
	.st0{clip-path:url(#SVGID_2_);fill:#9CC947;}
</style>
<title>android</title>
<desc>Created with Sketch.</desc>
<g>
	<defs>
		<path id="SVGID_1_" d="M-560,54c0-0.9-0.6-1.6-1.5-1.6c-0.9,0-1.5,0.7-1.5,1.6v6.7c0,0.9,0.7,1.6,1.5,1.6c0.9,0,1.5-0.7,1.5-1.6
			V54z M-578.3,52.7v10.5c0,0.9,0.9,1.9,1.8,1.9l1,0v3.3c0,0.9,0.8,1.6,1.7,1.6c0.9,0,1.6-0.7,1.6-1.6l0-3.3l2.2,0l0,3.3
			c0,0.9,0.7,1.6,1.6,1.6c0.9,0,1.7-0.7,1.7-1.6v-3.3l1,0c0.9,0,1.8-1,1.8-1.9V52.7L-578.3,52.7z M-567.7,49.5
			c-0.3,0-0.6-0.3-0.6-0.6c0-0.3,0.3-0.6,0.6-0.6c0.3,0,0.6,0.3,0.6,0.6C-567.1,49.3-567.4,49.5-567.7,49.5z M-574.3,49.5
			c-0.3,0-0.6-0.3-0.6-0.6c0-0.3,0.3-0.6,0.6-0.6c0.3,0,0.6,0.3,0.6,0.6C-573.7,49.3-574,49.5-574.3,49.5z M-567.5,46.2l1.1-2
			c0.1-0.1,0-0.2-0.1-0.3c-0.1-0.1-0.2,0-0.3,0.1l-1.1,2.1c-1-0.4-2-0.6-3.1-0.6c-1.1,0-2.2,0.2-3.1,0.6l-1.1-2.1
			c-0.1-0.1-0.2-0.1-0.3-0.1c-0.1,0.1-0.1,0.2-0.1,0.3l1.1,2c-2.2,1.1-3.7,3.5-3.7,5.9l14.5,0C-563.8,49.7-565.3,47.3-567.5,46.2z
			 M-580.5,52.4c-0.9,0-1.5,0.7-1.5,1.6v6.7c0,0.9,0.6,1.6,1.5,1.6c0.9,0,1.5-0.7,1.5-1.6V54C-579,53.1-579.7,52.4-580.5,52.4z"/>
	</defs>
	<use xlink:href="#SVGID_1_"  style="overflow:visible;fill-rule:evenodd;clip-rule:evenodd;fill:#9CC947;"/>
	<clipPath id="SVGID_2_">
		<use xlink:href="#SVGID_1_"  style="overflow:visible;"/>
	</clipPath>
	<rect x="-583.2" y="42.7" class="st0" width="24.4" height="28.6"/>
</g>
</svg>
