<?xml version="1.0" encoding="utf-8"?>
<!-- Generator: Adobe Illustrator 19.1.0, SVG Export Plug-In . SVG Version: 6.00 Build 0)  -->
<svg version="1.1" id="Layer_1" xmlns:sketch="http://www.bohemiancoding.com/sketch/ns"
	 xmlns="http://www.w3.org/2000/svg" xmlns:xlink="http://www.w3.org/1999/xlink" x="0px" y="0px" viewBox="-4 5 28 28"
	 style="enable-background:new -4 5 28 28;" xml:space="preserve">
<style type="text/css">
	.st0{fill:#15D0ED;}
</style>
<title>arduino</title>
<desc>Created with Sketch.</desc>
<g id="Page-1" sketch:type="MSPage">
	<g id="arduino" sketch:type="MSArtboardGroup">
		<path id="things" sketch:type="MSShapeGroup" class="st0" d="M10,20.8l-3.9-2.1v3.7l3.9,2.2l3.9-2.2v-3.7L10,20.8z M10.7,14
			c0,0.3,0.2,0.5,0.4,0.7l3.9,2.2c0.2,0.1,0.3,0.3,0.3,0.6V22c0,0.3,0.2,0.5,0.4,0.7l7,3.9c0.8-1,1.3-2.1,1.3-3.4
			c0-1.1-0.3-2.1-0.9-3c-0.6-0.9-1.4-1.5-2.5-1.9v-0.5c0-2.2-0.8-4.1-2.5-5.7c-1.6-1.6-3.6-2.4-5.9-2.4c-0.5,0-1.1,0.1-1.6,0.2V14z
			 M13.3,17.5L10,15.6l-3.3,1.9l3.3,1.8L13.3,17.5z M4.4,22.6c0.3-0.1,0.4-0.4,0.4-0.7v-4.4c0-0.2,0.1-0.4,0.3-0.6L9,14.7
			c0.2-0.1,0.4-0.4,0.4-0.7v-4c-0.5,0.2-1,0.5-1.5,0.8c-1.3,0.8-2.4,2-3.1,3.3c-0.6-0.5-1.4-0.7-2.4-0.7s-1.9,0.4-2.6,1.1
			c-0.7,0.7-1.1,1.6-1.1,2.7l0.1,1.1c-0.8,0.5-1.5,1.1-2,2C-3.8,21.1-4,22-4,23c0,1.3,0.4,2.4,1.3,3.4L4.4,22.6z M18.4,28.5
			c1.2,0,2.3-0.3,3.3-1L15,23.8c-0.3-0.1-0.6-0.1-0.8,0L10.4,26c-0.1,0.1-0.2,0.1-0.3,0.1c-0.1,0-0.2,0-0.3-0.1l-3.8-2.2
			c-0.2-0.1-0.6-0.1-0.8,0l-6.7,3.6c0.9,0.7,2,1.1,3.2,1.1H18.4z"/>
	</g>
</g>
</svg>
