<?xml version="1.0" encoding="utf-8"?>
<!-- Generator: Adobe Illustrator 19.1.0, SVG Export Plug-In . SVG Version: 6.00 Build 0)  -->
<svg version="1.1" id="Layer_1" xmlns:sketch="http://www.bohemiancoding.com/sketch/ns"
	 xmlns="http://www.w3.org/2000/svg" xmlns:xlink="http://www.w3.org/1999/xlink" x="0px" y="0px" viewBox="-2355 1341 28 28"
	 style="enable-background:new -2355 1341 28 28;" xml:space="preserve">
<style type="text/css">
	.st0{fill:#5B707D;}
</style>
<title>ios</title>
<desc>Created with Sketch.</desc>
<g id="Page-1" sketch:type="MSPage">
	<g id="ios" sketch:type="MSArtboardGroup">
		<path sketch:type="MSShapeGroup" class="st0" d="M-2336.5,1367c-0.5,0-1.2-0.2-2-0.5c-0.8-0.3-1.5-0.5-2-0.5s-1.2,0.2-2.1,0.5
			c-0.9,0.4-1.7,0.6-2.4,0.5c-0.7-0.1-1.5-0.7-2.4-1.7c-2.1-2.5-3.3-5.4-3.6-8.7v-1.1c0-1.3,0.4-2.4,0.9-3.4c0.6-1,1.4-1.8,2.4-2.5
			c1-0.6,2.1-0.8,3.3-0.7c0.5,0.1,1.2,0.3,2,0.6c0.8,0.3,1.3,0.4,1.4,0.4s0.4-0.1,0.8-0.2c0.4-0.1,0.7-0.2,1-0.3
			c0.3-0.1,0.4-0.1,0.5-0.2c0.7-0.3,1.4-0.4,2.1-0.4c2.3,0,3.9,0.8,4.9,2.4c-1.9,1.2-2.8,2.8-2.6,4.9s1.3,3.6,3.3,4.5v0.1
			c-0.5,1.3-1,2.4-1.7,3.3c-0.7,0.9-1.1,1.4-1.3,1.7c-0.2,0.2-0.5,0.5-1,0.8C-2335.5,1366.8-2336,1367-2336.5,1367L-2336.5,1367z
			 M-2336.3,1343h0.2c0.1,1.4-0.3,2.7-1.4,3.9c-1,1.2-2.2,1.7-3.6,1.6c-0.1-1.4,0.3-2.6,1.3-3.7
			C-2338.8,1343.8-2337.7,1343.2-2336.3,1343L-2336.3,1343z"/>
	</g>
</g>
</svg>
