<?xml version="1.0" encoding="utf-8"?>
<!-- Generator: Adobe Illustrator 19.1.0, SVG Export Plug-In . SVG Version: 6.00 Build 0)  -->
<svg version="1.1" id="Layer_1" xmlns:sketch="http://www.bohemiancoding.com/sketch/ns"
	 xmlns="http://www.w3.org/2000/svg" xmlns:xlink="http://www.w3.org/1999/xlink" x="0px" y="0px" viewBox="-585 43 28 28"
	 style="enable-background:new -585 43 28 28;" xml:space="preserve">
<style type="text/css">
	.st0{clip-path:url(#SVGID_2_);fill:#DEBC11;}
	.st1{clip-path:url(#SVGID_4_);fill:#DEBC11;}
</style>
<title>js</title>
<desc>Created with Sketch.</desc>
<g>
	<defs>
		<polygon id="SVGID_1_" points="-567.1,50.4 -568.6,48.9 -567.1,47.5 -559,47.5 -559,50.4 		"/>
	</defs>
	<use xlink:href="#SVGID_1_"  style="overflow:visible;fill-rule:evenodd;clip-rule:evenodd;fill:#DEBC11;"/>
	<clipPath id="SVGID_2_">
		<use xlink:href="#SVGID_1_"  style="overflow:visible;"/>
	</clipPath>
	<rect x="-569.8" y="46.3" class="st0" width="12" height="5.2"/>
</g>
<g>
	<defs>
		<path id="SVGID_3_" d="M-562.7,64.9c-0.7,0-1.5-0.3-2-0.6l0.6-1c0.4,0.2,1,0.4,1.4,0.4c0.4,0,0.6-0.1,0.6-0.3c0-0.6-2.5-0.2-2.5-2
			c0-0.8,0.7-1.5,1.8-1.5c0.6,0,1.2,0.2,1.8,0.4l-0.5,1c-0.5-0.2-0.9-0.3-1.3-0.3c-0.3,0-0.5,0.1-0.5,0.3c0,0.6,2.5,0.2,2.5,2
			C-560.8,64.2-561.4,64.9-562.7,64.9z M-565.3,63.2c0,1.1-0.7,1.7-1.7,1.7c-0.7,0-1.3-0.3-1.7-0.9l1-0.7c0.2,0.2,0.4,0.4,0.6,0.4
			c0.3,0,0.5-0.2,0.5-0.5V60h1.3L-565.3,63.2L-565.3,63.2z M-568.1,52.8l-2.8-2.7H-583v15.5c0,0.5,0.4,0.8,0.8,0.8h23.2V52.8H-568.1
			z"/>
	</defs>
	<use xlink:href="#SVGID_3_"  style="overflow:visible;fill-rule:evenodd;clip-rule:evenodd;fill:#DEBC11;"/>
	<clipPath id="SVGID_4_">
		<use xlink:href="#SVGID_3_"  style="overflow:visible;"/>
	</clipPath>
	<rect x="-584.2" y="49" class="st1" width="26.4" height="18.7"/>
</g>
</svg>
