<?xml version="1.0" encoding="utf-8"?>
<!-- Generator: Adobe Illustrator 19.1.0, SVG Export Plug-In . SVG Version: 6.00 Build 0)  -->
<svg version="1.1" id="Layer_1" xmlns:sketch="http://www.bohemiancoding.com/sketch/ns"
	 xmlns="http://www.w3.org/2000/svg" xmlns:xlink="http://www.w3.org/1999/xlink" x="0px" y="0px" viewBox="-4 5 28 28"
	 style="enable-background:new -4 5 28 28;" xml:space="preserve">
<style type="text/css">
	.st0{fill:#DEBC11;}
	.st1{clip-path:url(#SVGID_4_);fill:#F5A623;}
	.st2{clip-path:url(#SVGID_6_);fill:#F5A623;}
</style>
<title>js</title>
<desc>Created with Sketch.</desc>
<g>
	<g>
		<polygon id="SVGID_1_" class="st0" points="13.9,12.5 12.4,11 13.9,9.5 22,9.5 22,12.5 		"/>
	</g>
	<g>
		<defs>
			<polygon id="SVGID_2_" points="13.9,12.5 12.4,11 13.9,9.5 22,9.5 22,12.5 			"/>
		</defs>
		<clipPath id="SVGID_4_">
			<use xlink:href="#SVGID_2_"  style="overflow:visible;"/>
		</clipPath>
		<rect x="11.2" y="8.3" class="st1" width="12" height="5.2"/>
	</g>
</g>
<g>
	<g>
		<path id="SVGID_3_" class="st0" d="M18.3,27c-0.7,0-1.5-0.3-2-0.6l0.6-1c0.4,0.2,1,0.4,1.4,0.4s0.6-0.1,0.6-0.3
			c0-0.6-2.5-0.2-2.5-2c0-0.8,0.7-1.5,1.8-1.5c0.6,0,1.2,0.2,1.8,0.4l-0.5,1c-0.5-0.2-0.9-0.3-1.3-0.3c-0.3,0-0.5,0.1-0.5,0.3
			c0,0.6,2.5,0.2,2.5,2C20.2,26.2,19.6,27,18.3,27z M15.7,25.2c0,1.1-0.7,1.7-1.7,1.7c-0.7,0-1.3-0.3-1.7-0.9l1-0.7
			c0.2,0.2,0.4,0.4,0.6,0.4c0.3,0,0.5-0.2,0.5-0.5V22h1.3L15.7,25.2L15.7,25.2z M12.9,14.8l-2.8-2.7H-2v15.5c0,0.5,0.4,0.8,0.8,0.8
			H22V14.8H12.9z"/>
	</g>
	<g>
		<defs>
			<path id="SVGID_5_" d="M18.3,27c-0.7,0-1.5-0.3-2-0.6l0.6-1c0.4,0.2,1,0.4,1.4,0.4s0.6-0.1,0.6-0.3c0-0.6-2.5-0.2-2.5-2
				c0-0.8,0.7-1.5,1.8-1.5c0.6,0,1.2,0.2,1.8,0.4l-0.5,1c-0.5-0.2-0.9-0.3-1.3-0.3c-0.3,0-0.5,0.1-0.5,0.3c0,0.6,2.5,0.2,2.5,2
				C20.2,26.2,19.6,27,18.3,27z M15.7,25.2c0,1.1-0.7,1.7-1.7,1.7c-0.7,0-1.3-0.3-1.7-0.9l1-0.7c0.2,0.2,0.4,0.4,0.6,0.4
				c0.3,0,0.5-0.2,0.5-0.5V22h1.3L15.7,25.2L15.7,25.2z M12.9,14.8l-2.8-2.7H-2v15.5c0,0.5,0.4,0.8,0.8,0.8H22V14.8H12.9z"/>
		</defs>
		<clipPath id="SVGID_6_">
			<use xlink:href="#SVGID_5_"  style="overflow:visible;"/>
		</clipPath>
		<rect x="-3.2" y="11" class="st2" width="26.4" height="18.7"/>
	</g>
</g>
</svg>
