<?xml version="1.0" encoding="utf-8"?>
<!-- Generator: Adobe Illustrator 19.1.0, SVG Export Plug-In . SVG Version: 6.00 Build 0)  -->
<svg version="1.1" id="Layer_1" xmlns:sketch="http://www.bohemiancoding.com/sketch/ns"
	 xmlns="http://www.w3.org/2000/svg" xmlns:xlink="http://www.w3.org/1999/xlink" x="0px" y="0px" viewBox="-567 43 52 28"
	 style="enable-background:new -567 43 52 28;" xml:space="preserve">
<style type="text/css">
	.st0{fill:#922ADD;}
	.st1{clip-path:url(#SVGID_2_);fill:#922ADD;}
	.st2{clip-path:url(#SVGID_4_);fill:#922ADD;}
	.st3{clip-path:url(#SVGID_6_);fill:#922ADD;}
	.st4{clip-path:url(#SVGID_8_);fill:#922ADD;}
</style>
<title>net</title>
<desc>Created with Sketch.</desc>
<path id="Imported-Layers-5" sketch:type="MSShapeGroup" class="st0" d="M-521.5,57.5h-3.8v-3.2l3.8-0.7V57.5L-521.5,57.5z
	 M-525.2,57.9h3.8v3.8l-3.8-0.7V57.9L-525.2,57.9z M-515,57.5h-6v-3.9l6-1.1V57.5L-515,57.5z M-521,57.9h6v5l-6-1.1V57.9L-521,57.9z
	"/>
<path id="Imported-Layers-3" sketch:type="MSShapeGroup" class="st0" d="M-533.7,62.8h-4.6c-0.5,0-0.9-0.2-1.2-0.7
	c-0.5-0.9-1.3-2.1-2.3-3.9c-0.2-0.4-0.2-0.9,0-1.3l2.3-3.9c0.1-0.2,0.2-0.3,0.4-0.4c0,0,0.2-0.1,0.4-0.2h5.1
	c0.4,0.1,0.7,0.3,0.9,0.7c0.2,0.4,0.5,0.9,0.9,1.5s0.6,1,0.7,1.2c0.1,0.2,0.2,0.4,0.4,0.7c0.2,0.3,0.3,0.6,0.4,0.8v0.5
	c-0.1,0.2-0.3,0.7-0.7,1.3c-0.4,0.6-1,1.6-1.8,3C-532.8,62.5-533.2,62.8-533.7,62.8L-533.7,62.8z M-534.2,60.5h0.9
	c0.1,0,0.1,0,0.1,0c0,0,0-0.1,0-0.1l-1.5-2.7c0-0.1,0-0.2,0-0.3c1-1.8,1.5-2.7,1.5-2.8c0,0,0,0-0.1,0h-0.9c-0.1,0-0.2,0-0.2,0.1
	c-0.2,0.4-0.5,1-1,1.8l-0.5,0.9c0,0.1-0.1,0.1-0.1,0c0,0-0.1-0.1-0.2-0.3c-0.1-0.1-0.5-1-1.4-2.5c0-0.1-0.1-0.1-0.2-0.1h-0.9
	c-0.1,0-0.1,0-0.1,0c0,0,0.5,0.9,1.5,2.8c0.1,0.1,0.1,0.2,0,0.3c-1,1.8-1.5,2.8-1.5,2.8c0,0,0,0,0.1,0h0.9c0.1,0,0.2,0,0.3-0.1
	l1.5-2.7c0,0,0,0,0,0c0-0.1,0.1,0,0.1,0.1c0.3,0.6,0.8,1.5,1.5,2.7C-534.4,60.5-534.3,60.5-534.2,60.5L-534.2,60.5z"/>
<g>
	<g>
		<defs>
			<rect id="SVGID_1_" x="-567" y="60" width="1.8" height="1.8"/>
		</defs>
		<use xlink:href="#SVGID_1_"  style="overflow:visible;fill-rule:evenodd;clip-rule:evenodd;fill:#922ADD;"/>
		<clipPath id="SVGID_2_">
			<use xlink:href="#SVGID_1_"  style="overflow:visible;"/>
		</clipPath>
		<rect x="-568" y="58.9" class="st1" width="3.8" height="3.8"/>
	</g>
	<g>
		<defs>
			<path id="SVGID_3_" d="M-564,55.5h1.6l0.1,0.7c0.5-0.5,1.1-0.9,1.9-0.9c1.4,0,2,0.9,2,2.3v4.2h-1.7v-4.2c0-0.6-0.2-0.9-0.8-0.9
				c-0.5,0-1,0.3-1.4,0.7v4.4h-1.7L-564,55.5L-564,55.5z"/>
		</defs>
		<use xlink:href="#SVGID_3_"  style="overflow:visible;fill-rule:evenodd;clip-rule:evenodd;fill:#922ADD;"/>
		<clipPath id="SVGID_4_">
			<use xlink:href="#SVGID_3_"  style="overflow:visible;"/>
		</clipPath>
		<rect x="-565" y="54.3" class="st2" width="7.6" height="8.4"/>
	</g>
	<g>
		<defs>
			<path id="SVGID_5_" d="M-556,58h2.5c0-0.8-0.3-1.4-1.1-1.4C-555.3,56.6-555.8,57-556,58z M-554.6,55.3c1.8,0,2.8,1.2,2.8,2.9
				c0,0.2,0,0.6-0.1,0.8h-4.1c0.1,1.1,0.6,1.6,1.5,1.6c0.6,0,1.2-0.2,1.7-0.5l0.7,1.1c-0.8,0.5-1.6,0.8-2.6,0.8
				c-1.8,0-3.2-1.2-3.2-3.3C-557.8,56.6-556.4,55.3-554.6,55.3z"/>
		</defs>
		<use xlink:href="#SVGID_5_"  style="overflow:visible;fill-rule:evenodd;clip-rule:evenodd;fill:#922ADD;"/>
		<clipPath id="SVGID_6_">
			<use xlink:href="#SVGID_5_"  style="overflow:visible;"/>
		</clipPath>
		<rect x="-558.8" y="54.3" class="st3" width="8" height="8.6"/>
	</g>
	<g>
		<defs>
			<path id="SVGID_7_" d="M-550.7,56.7h-1v-1.2h1v-1.6h1.7v1.6h1.7v1.2h-1.7v3.1c0,0.5,0.2,0.7,0.6,0.7c0.3,0,0.6-0.1,0.9-0.3l0.6,1
				c-0.5,0.4-1.1,0.6-1.8,0.6c-1.3,0-1.9-0.6-1.9-2L-550.7,56.7L-550.7,56.7z"/>
		</defs>
		<use xlink:href="#SVGID_7_"  style="overflow:visible;fill-rule:evenodd;clip-rule:evenodd;fill:#922ADD;"/>
		<clipPath id="SVGID_8_">
			<use xlink:href="#SVGID_7_"  style="overflow:visible;"/>
		</clipPath>
		<rect x="-552.7" y="52.9" class="st4" width="6.8" height="10"/>
	</g>
</g>
</svg>
