<?xml version="1.0" encoding="utf-8"?>
<!-- Generator: Adobe Illustrator 19.1.0, SVG Export Plug-In . SVG Version: 6.00 Build 0)  -->
<svg version="1.1" id="Layer_1" xmlns:sketch="http://www.bohemiancoding.com/sketch/ns"
	 xmlns="http://www.w3.org/2000/svg" xmlns:xlink="http://www.w3.org/1999/xlink" x="0px" y="0px" viewBox="-2343 1341 28 28"
	 style="enable-background:new -2343 1341 28 28;" xml:space="preserve">
<style type="text/css">
	.st0{fill:#922ADD;}
	.st1{clip-path:url(#SVGID_8_);fill:#922ADD;}
	.st2{clip-path:url(#SVGID_12_);fill:#922ADD;}
	.st3{clip-path:url(#SVGID_14_);fill:#922ADD;}
	.st4{clip-path:url(#SVGID_16_);fill:#922ADD;}
</style>
<title>net</title>
<desc>Created with Sketch.</desc>
<g>
	<g>
		<g>
			<rect id="SVGID_1_" x="-2339.1" y="1357.1" class="st0" width="1.8" height="1.8"/>
		</g>
		<g>
			<g>
				<rect id="SVGID_2_" x="-2339.1" y="1357.1" class="st0" width="1.8" height="1.8"/>
			</g>
			<g>
				<defs>
					<rect id="SVGID_4_" x="-2339.1" y="1357.1" width="1.8" height="1.8"/>
				</defs>
				<clipPath id="SVGID_8_">
					<use xlink:href="#SVGID_4_"  style="overflow:visible;"/>
				</clipPath>
				<rect x="-2340.1" y="1355.9" class="st1" width="3.8" height="3.8"/>
			</g>
		</g>
	</g>
	<g>
		<g>
			<path id="SVGID_3_" class="st0" d="M-2336.1,1352.6h1.6l0.1,0.7c0.5-0.5,1.1-0.9,1.9-0.9c1.4,0,2,0.9,2,2.3v4.2h-1.7v-4.2
				c0-0.6-0.2-0.9-0.8-0.9c-0.5,0-1,0.3-1.4,0.7v4.4h-1.7V1352.6L-2336.1,1352.6z"/>
		</g>
		<g>
			<g>
				<path id="SVGID_6_" class="st0" d="M-2336.1,1352.6h1.6l0.1,0.7c0.5-0.5,1.1-0.9,1.9-0.9c1.4,0,2,0.9,2,2.3v4.2h-1.7v-4.2
					c0-0.6-0.2-0.9-0.8-0.9c-0.5,0-1,0.3-1.4,0.7v4.4h-1.7V1352.6L-2336.1,1352.6z"/>
			</g>
			<g>
				<defs>
					<path id="SVGID_10_" d="M-2336.1,1352.6h1.6l0.1,0.7c0.5-0.5,1.1-0.9,1.9-0.9c1.4,0,2,0.9,2,2.3v4.2h-1.7v-4.2
						c0-0.6-0.2-0.9-0.8-0.9c-0.5,0-1,0.3-1.4,0.7v4.4h-1.7V1352.6L-2336.1,1352.6z"/>
				</defs>
				<clipPath id="SVGID_12_">
					<use xlink:href="#SVGID_10_"  style="overflow:visible;"/>
				</clipPath>
				<rect x="-2337.1" y="1351.3" class="st2" width="7.6" height="8.4"/>
			</g>
		</g>
	</g>
	<g>
		<g>
			<path id="SVGID_5_" class="st0" d="M-2328.1,1355.1h2.5c0-0.8-0.3-1.4-1.1-1.4C-2327.4,1353.7-2327.9,1354.1-2328.1,1355.1z
				 M-2326.6,1352.3c1.8,0,2.8,1.2,2.8,2.9c0,0.2,0,0.6-0.1,0.8h-4.1c0.1,1.1,0.6,1.6,1.5,1.6c0.6,0,1.2-0.2,1.7-0.5l0.7,1.1
				c-0.8,0.5-1.6,0.8-2.6,0.8c-1.8,0-3.2-1.2-3.2-3.3C-2329.9,1353.7-2328.4,1352.3-2326.6,1352.3z"/>
		</g>
		<g>
			<g>
				<path id="SVGID_9_" class="st0" d="M-2328.1,1355.1h2.5c0-0.8-0.3-1.4-1.1-1.4C-2327.4,1353.7-2327.9,1354.1-2328.1,1355.1z
					 M-2326.6,1352.3c1.8,0,2.8,1.2,2.8,2.9c0,0.2,0,0.6-0.1,0.8h-4.1c0.1,1.1,0.6,1.6,1.5,1.6c0.6,0,1.2-0.2,1.7-0.5l0.7,1.1
					c-0.8,0.5-1.6,0.8-2.6,0.8c-1.8,0-3.2-1.2-3.2-3.3C-2329.9,1353.7-2328.4,1352.3-2326.6,1352.3z"/>
			</g>
			<g>
				<defs>
					<path id="SVGID_13_" d="M-2328.1,1355.1h2.5c0-0.8-0.3-1.4-1.1-1.4C-2327.4,1353.7-2327.9,1354.1-2328.1,1355.1z
						 M-2326.6,1352.3c1.8,0,2.8,1.2,2.8,2.9c0,0.2,0,0.6-0.1,0.8h-4.1c0.1,1.1,0.6,1.6,1.5,1.6c0.6,0,1.2-0.2,1.7-0.5l0.7,1.1
						c-0.8,0.5-1.6,0.8-2.6,0.8c-1.8,0-3.2-1.2-3.2-3.3C-2329.9,1353.7-2328.4,1352.3-2326.6,1352.3z"/>
				</defs>
				<clipPath id="SVGID_14_">
					<use xlink:href="#SVGID_13_"  style="overflow:visible;"/>
				</clipPath>
				<rect x="-2330.9" y="1351.3" class="st3" width="8" height="8.6"/>
			</g>
		</g>
	</g>
	<g>
		<g>
			<path id="SVGID_7_" class="st0" d="M-2322.8,1353.8h-1v-1.2h1v-1.6h1.7v1.6h1.7v1.2h-1.7v3.1c0,0.5,0.2,0.7,0.6,0.7
				c0.3,0,0.6-0.1,0.9-0.3l0.6,1c-0.5,0.4-1.1,0.6-1.8,0.6c-1.3,0-1.9-0.6-1.9-2L-2322.8,1353.8L-2322.8,1353.8z"/>
		</g>
		<g>
			<g>
				<path id="SVGID_11_" class="st0" d="M-2322.8,1353.8h-1v-1.2h1v-1.6h1.7v1.6h1.7v1.2h-1.7v3.1c0,0.5,0.2,0.7,0.6,0.7
					c0.3,0,0.6-0.1,0.9-0.3l0.6,1c-0.5,0.4-1.1,0.6-1.8,0.6c-1.3,0-1.9-0.6-1.9-2L-2322.8,1353.8L-2322.8,1353.8z"/>
			</g>
			<g>
				<defs>
					<path id="SVGID_15_" d="M-2322.8,1353.8h-1v-1.2h1v-1.6h1.7v1.6h1.7v1.2h-1.7v3.1c0,0.5,0.2,0.7,0.6,0.7c0.3,0,0.6-0.1,0.9-0.3
						l0.6,1c-0.5,0.4-1.1,0.6-1.8,0.6c-1.3,0-1.9-0.6-1.9-2L-2322.8,1353.8L-2322.8,1353.8z"/>
				</defs>
				<clipPath id="SVGID_16_">
					<use xlink:href="#SVGID_15_"  style="overflow:visible;"/>
				</clipPath>
				<rect x="-2324.8" y="1349.9" class="st4" width="6.8" height="10"/>
			</g>
		</g>
	</g>
</g>
</svg>
