<?xml version="1.0" encoding="utf-8"?>
<!-- Generator: Adobe Illustrator 19.1.0, SVG Export Plug-In . SVG Version: 6.00 Build 0)  -->
<svg version="1.1" id="Layer_1" xmlns:sketch="http://www.bohemiancoding.com/sketch/ns"
	 xmlns="http://www.w3.org/2000/svg" xmlns:xlink="http://www.w3.org/1999/xlink" x="0px" y="0px" viewBox="-2355 1341 28 28"
	 style="enable-background:new -2355 1341 28 28;" xml:space="preserve">
<style type="text/css">
	.st0{fill:#922ADD;}
	.st1{clip-path:url(#SVGID_8_);fill:#922ADD;}
	.st2{clip-path:url(#SVGID_12_);fill:#922ADD;}
	.st3{clip-path:url(#SVGID_14_);fill:#922ADD;}
	.st4{clip-path:url(#SVGID_16_);fill:#922ADD;}
</style>
<title>net</title>
<desc>Created with Sketch.</desc>
<g>
	<g>
		<g>
			<rect id="SVGID_1_" x="-2353" y="1357.5" class="st0" width="2.1" height="2.1"/>
		</g>
		<g>
			<g>
				<rect id="SVGID_2_" x="-2353" y="1357.5" class="st0" width="2.1" height="2.1"/>
			</g>
			<g>
				<g>
					<defs>
						<rect id="SVGID_4_" x="-2353" y="1357.5" width="2.1" height="2.1"/>
					</defs>
					<clipPath id="SVGID_8_">
						<use xlink:href="#SVGID_4_"  style="overflow:visible;"/>
					</clipPath>
					<rect x="-2354.2" y="1356.1" class="st1" width="4.5" height="4.5"/>
				</g>
			</g>
		</g>
	</g>
	<g>
		<g>
			<path id="SVGID_3_" class="st0" d="M-2349.4,1352.1h1.9l0.1,0.8c0.6-0.6,1.3-1.1,2.3-1.1c1.7,0,2.4,1.1,2.4,2.7v5h-2v-5
				c0-0.7-0.2-1.1-1-1.1c-0.6,0-1.2,0.4-1.7,0.8v5.3h-2L-2349.4,1352.1L-2349.4,1352.1z"/>
		</g>
		<g>
			<g>
				<path id="SVGID_6_" class="st0" d="M-2349.4,1352.1h1.9l0.1,0.8c0.6-0.6,1.3-1.1,2.3-1.1c1.7,0,2.4,1.1,2.4,2.7v5h-2v-5
					c0-0.7-0.2-1.1-1-1.1c-0.6,0-1.2,0.4-1.7,0.8v5.3h-2L-2349.4,1352.1L-2349.4,1352.1z"/>
			</g>
			<g>
				<g>
					<defs>
						<path id="SVGID_10_" d="M-2349.4,1352.1h1.9l0.1,0.8c0.6-0.6,1.3-1.1,2.3-1.1c1.7,0,2.4,1.1,2.4,2.7v5h-2v-5
							c0-0.7-0.2-1.1-1-1.1c-0.6,0-1.2,0.4-1.7,0.8v5.3h-2L-2349.4,1352.1L-2349.4,1352.1z"/>
					</defs>
					<clipPath id="SVGID_12_">
						<use xlink:href="#SVGID_10_"  style="overflow:visible;"/>
					</clipPath>
					<rect x="-2350.6" y="1350.6" class="st2" width="9.1" height="10"/>
				</g>
			</g>
		</g>
	</g>
	<g>
		<g>
			<path id="SVGID_5_" class="st0" d="M-2339.9,1355.1h3c0-1-0.4-1.7-1.3-1.7C-2339,1353.4-2339.6,1353.9-2339.9,1355.1z
				 M-2338.1,1351.8c2.1,0,3.3,1.4,3.3,3.5c0,0.2,0,0.7-0.1,1h-4.9c0.1,1.3,0.7,1.9,1.8,1.9c0.7,0,1.4-0.2,2-0.6l0.8,1.3
				c-1,0.6-1.9,1-3.1,1c-2.1,0-3.8-1.4-3.8-3.9C-2342,1353.4-2340.2,1351.8-2338.1,1351.8z"/>
		</g>
		<g>
			<g>
				<path id="SVGID_9_" class="st0" d="M-2339.9,1355.1h3c0-1-0.4-1.7-1.3-1.7C-2339,1353.4-2339.6,1353.9-2339.9,1355.1z
					 M-2338.1,1351.8c2.1,0,3.3,1.4,3.3,3.5c0,0.2,0,0.7-0.1,1h-4.9c0.1,1.3,0.7,1.9,1.8,1.9c0.7,0,1.4-0.2,2-0.6l0.8,1.3
					c-1,0.6-1.9,1-3.1,1c-2.1,0-3.8-1.4-3.8-3.9C-2342,1353.4-2340.2,1351.8-2338.1,1351.8z"/>
			</g>
			<g>
				<g>
					<defs>
						<path id="SVGID_13_" d="M-2339.9,1355.1h3c0-1-0.4-1.7-1.3-1.7C-2339,1353.4-2339.6,1353.9-2339.9,1355.1z M-2338.1,1351.8
							c2.1,0,3.3,1.4,3.3,3.5c0,0.2,0,0.7-0.1,1h-4.9c0.1,1.3,0.7,1.9,1.8,1.9c0.7,0,1.4-0.2,2-0.6l0.8,1.3c-1,0.6-1.9,1-3.1,1
							c-2.1,0-3.8-1.4-3.8-3.9C-2342,1353.4-2340.2,1351.8-2338.1,1351.8z"/>
					</defs>
					<clipPath id="SVGID_14_">
						<use xlink:href="#SVGID_13_"  style="overflow:visible;"/>
					</clipPath>
					<rect x="-2343.2" y="1350.6" class="st3" width="9.6" height="10.3"/>
				</g>
			</g>
		</g>
	</g>
	<g>
		<g>
			<path id="SVGID_7_" class="st0" d="M-2333.5,1353.6h-1.2v-1.4h1.2v-1.9h2v1.9h2v1.4h-2v3.7c0,0.6,0.2,0.8,0.7,0.8
				c0.4,0,0.7-0.1,1.1-0.4l0.7,1.2c-0.6,0.5-1.3,0.7-2.1,0.7c-1.6,0-2.3-0.7-2.3-2.4L-2333.5,1353.6L-2333.5,1353.6z"/>
		</g>
		<g>
			<g>
				<path id="SVGID_11_" class="st0" d="M-2333.5,1353.6h-1.2v-1.4h1.2v-1.9h2v1.9h2v1.4h-2v3.7c0,0.6,0.2,0.8,0.7,0.8
					c0.4,0,0.7-0.1,1.1-0.4l0.7,1.2c-0.6,0.5-1.3,0.7-2.1,0.7c-1.6,0-2.3-0.7-2.3-2.4L-2333.5,1353.6L-2333.5,1353.6z"/>
			</g>
			<g>
				<g>
					<defs>
						<path id="SVGID_15_" d="M-2333.5,1353.6h-1.2v-1.4h1.2v-1.9h2v1.9h2v1.4h-2v3.7c0,0.6,0.2,0.8,0.7,0.8c0.4,0,0.7-0.1,1.1-0.4
							l0.7,1.2c-0.6,0.5-1.3,0.7-2.1,0.7c-1.6,0-2.3-0.7-2.3-2.4L-2333.5,1353.6L-2333.5,1353.6z"/>
					</defs>
					<clipPath id="SVGID_16_">
						<use xlink:href="#SVGID_15_"  style="overflow:visible;"/>
					</clipPath>
					<rect x="-2335.9" y="1348.9" class="st4" width="8.1" height="11.9"/>
				</g>
			</g>
		</g>
	</g>
</g>
</svg>
