<?xml version="1.0" encoding="utf-8"?>
<!-- Generator: Adobe Illustrator 19.1.0, SVG Export Plug-In . SVG Version: 6.00 Build 0)  -->
<svg version="1.1" id="Layer_1" xmlns:sketch="http://www.bohemiancoding.com/sketch/ns"
	 xmlns="http://www.w3.org/2000/svg" xmlns:xlink="http://www.w3.org/1999/xlink" x="0px" y="0px" viewBox="-4 5 28 28"
	 style="enable-background:new -4 5 28 28;" xml:space="preserve">
<style type="text/css">
	.st0{fill:#9CAFBA;}
</style>
<title>osx</title>
<desc>Created with Sketch.</desc>
<g id="Page-1" sketch:type="MSPage">
	<g id="osx" sketch:type="MSArtboardGroup">
		<path sketch:type="MSShapeGroup" class="st0" d="M14.5,31c-0.5,0-1.2-0.2-2-0.5c-0.8-0.3-1.5-0.5-2-0.5s-1.2,0.2-2.1,0.5
			C7.5,30.9,6.7,31.1,6,31c-0.7-0.1-1.5-0.7-2.4-1.7c-2.1-2.5-3.3-5.4-3.6-8.7v-1.1c0-1.3,0.4-2.4,0.9-3.4c0.6-1,1.4-1.8,2.4-2.5
			c1-0.6,2.1-0.8,3.3-0.7c0.5,0.1,1.2,0.3,2,0.6c0.8,0.3,1.3,0.4,1.4,0.4c0.1,0,0.4-0.1,0.8-0.2c0.4-0.1,0.7-0.2,1-0.3
			c0.3-0.1,0.4-0.1,0.5-0.2c0.7-0.3,1.4-0.4,2.1-0.4c2.3,0,3.9,0.8,4.9,2.4c-1.9,1.2-2.8,2.8-2.6,4.9c0.2,2.1,1.3,3.6,3.3,4.5v0.1
			c-0.5,1.3-1,2.4-1.7,3.3c-0.7,0.9-1.1,1.4-1.3,1.7c-0.2,0.2-0.5,0.5-1,0.8C15.5,30.8,15,31,14.5,31L14.5,31z M14.7,7h0.2
			c0.1,1.4-0.3,2.7-1.4,3.9c-1,1.2-2.2,1.7-3.6,1.6c-0.1-1.4,0.3-2.6,1.3-3.7C12.2,7.8,13.3,7.2,14.7,7L14.7,7z"/>
	</g>
</g>
</svg>
